# xmcd
#
# Track frame offsets:
#	150
#	15250
#	33635
#	48885
#	65732
#	76115
#	90650
#	106510
#	121182
#	133805
#	146222
#	161847
#	179082
#	189172
#	210852
#	223090
#	234595
#	251050
#	268417
#	286965
#	301550
#	320717
#
# Disc length: 4456
#
# Revision: 3
# Processed by: cddbd v1.5.1PL0 Copyright (c) Steve Scherf et al.
# Submitted via: ExactAudioCopy v0.95a3
# Normalized: r2:DSETVAR1,TDELIM( - )
#
DISCID=3a116616
DTITLE=Various Artist - Souvenirs de France - années '70
DYEAR=1988
DGENRE=Chanson
TTITLE0=Une belle histoire - Michel Fugain
TTITLE1=Avant de nous dire adieu - Jeane Manson
TTITLE2=Papillon - Louis Chedid
TTITLE3=Célimène - David Martial
TTITLE4=Chanson pour Marie - Patrick Abrial
TTITLE5=Michèle - Gérard Lenorman
TTITLE6=Butterfly - Danyel Gérard
TTITLE7=Vanina - Dave
TTITLE8=Je l'aime à mourir - Francis Cabrel
TTITLE9=La bonne du curé - Annie Cordy
TTITLE10=Fidèle - Charles Trenet
TTITLE11=Inch'Allah - Adamo
TTITLE12=J'attendrai - Caravelli
TTITLE13=Manureva - Alain Chamfort
TTITLE14=Tu te reconnaîtras - Anne-Marie David
TTITLE15=Dis-moi oui - François Béranger
TTITLE16=Magdalena - Julie Pietri
TTITLE17=Le chant des partisans - Yves Montand
TTITLE18=Le téléphone pleure - Claude François
TTITLE19=Je suis heureux - Jacques Debronckart
TTITLE20=La Marie-Jeanne - Joe Dassin
TTITLE21=L'amour ça fait chanter la vie - Jean Vallée
EXTD=
EXTT0=
EXTT1=
EXTT2=
EXTT3=
EXTT4=
EXTT5=
EXTT6=
EXTT7=
EXTT8=
EXTT9=
EXTT10=
EXTT11=
EXTT12=
EXTT13=
EXTT14=
EXTT15=
EXTT16=
EXTT17=
EXTT18=
EXTT19=
EXTT20=
EXTT21=
PLAYORDER=
